<svg version="1" xmlns="http://www.w3.org/2000/svg" width="1056" height="1056" viewBox="0 0 792.000000 792.000000"><path d="M2 396v396h788V0H2v396zm428.3-189.7l39.4 36.9.7 19.1c.3 10.6.9 25.7 1.2 33.7l.6 14.5-3.8-3.6c-2.2-1.9-14.4-13.3-27.1-25.3L418 259.9V330l-4.2-.7c-6.2-1.1-33.6-.8-38.7.5-3.2.7-7.7.7-16 0-13.9-1.3-30.2.4-44.6 4.8-4.9 1.5-9.8 2.7-10.7 2.8-1 0-1.8.3-1.8.6 0 .9-7.2 4.2-7.8 3.6-.3-.3.4-.9 1.4-1.2 1-.4 3.1-1.6 4.7-2.6 1.5-1.1 2.7-1.7 2.7-1.4 0 .4 1.6 0 3.5-.8s3.5-1.2 3.5-.9c0 .3.6.1 1.3-.5.7-.6 2.6-1.3 4.2-1.6 1.7-.2 3-.5 3-.6 0-.2 1.3-.5 5.2-1.4 1.2-.2 3.1-.9 4.2-1.5s3.5-1.1 5.5-1.1c1.9 0 5.4-.8 7.8-1.8 3.8-1.6 10.4-3.3 17.8-4.6 1.4-.2 4.2-.7 6.3-1.1l3.7-.7v-59.3l-2.9 3c-1.5 1.7-12.9 13.8-25.2 27-12.3 13.2-22.6 24.1-23 24.3-.6.3-2.2-39.7-2.3-59.4l-.1-7.2 37-39.6c20.3-21.8 37.2-39.5 37.6-39.4.4.2 18.5 16.9 40.2 37.1zm-252 32.5c3.6 1.8 7.6 4.5 8.9 6 1.3 1.5 8.1 16.6 15.2 33.5l12.9 30.7h4.1c2.3 0 4.7.5 5.4 1.2 2 2 1.4 6-1.4 8.9l-2.6 2.8 9.2 21.8c5.1 12 9.3 22.2 9.5 22.8.1.5 1.6 4.1 3.3 7.8 1.8 3.8 3.2 7 3.2 7.2 0 .1 1.1 2.8 2.5 6l2.5 5.7 4.6-6.3c17.5-23.7 46.3-40.9 76.1-45.4 13.8-2.1 14.3-2 9.7 1.3-2.1 1.6-5.6 4.7-7.6 7-2.1 2.3-4.4 4.2-5.2 4.2-3.4 0-18.8 5.5-26.8 9.7-17.5 9-32.7 23.1-42.7 39.6-2.2 3.6-2.2 3.8-.5 8.2.9 2.5 2 4.5 2.3 4.5.4 0 2.1-2.7 4-6.1 7.6-13.9 21.1-27.6 35.2-35.9 6.4-3.8 18.7-9.1 24.2-10.4 2.7-.6 2.7-.6 2.7 4.6v5.3l-5.9 1.8c-20.6 6.5-42.6 27-51.7 48.3-2.7 6.3-2.7 6.4-1 10.9 1 2.5 2.1 4.5 2.4 4.5.4 0 1.6-2.9 2.6-6.5 3.7-12.9 13.6-27.3 25.6-37.2 8.7-7.2 28.1-16.7 28-13.7-.1.5-1.5 1.8-3.3 2.9-1.8 1.1-4 3.5-4.9 5.4-.9 1.8-3.9 4.8-6.7 6.6-8.7 5.7-13.2 9.8-18.7 16.8-6.6 8.5-10.8 17.1-13.6 27.9-2.9 11.6-2.3 28 1.6 39.3 5.3 15.5 16.1 29.3 29.7 38.1 6.8 4.5 6.9 4.5 6.9 8.9 0 2.5-.3 4.5-.7 4.5-1.4 0-12.1-6.5-17.4-10.6-14.7-11.2-26.1-30.2-28.9-47.9-2.1-13.1-1.7-12.5-5-7.4l-2.9 4.4 1.5 6.5c3 13.1 7.9 23.6 16 34.1 8.3 10.8 23.2 22.7 33.2 26.5l4.2 1.7v5.4c0 6.4.1 6.3-11.3.7-25-12.4-43.8-35.2-50.8-61.6l-1.3-4.7-3.7 3-3.8 3 2.3 6.7c5.4 15.6 14.4 29.8 26.9 41.9 11.5 11.1 23 18.6 37 23.8l4.7 1.8V572l-7.2-2.6c-21.8-7.8-41.6-22.4-55.6-41.1-5.9-7.8-14.2-23.4-16.8-31.6l-1.7-5.6-4.6 2.3c-10.5 5.3-20.9 7.8-34.8 8.4-16 .6-24.1-1.4-31.2-7.5-5.4-4.6-4.9-3.6-34.2-73l-22.3-53.2-2.8.6c-3.8.7-7.8-2-7.8-5.3 0-1.4 1.1-3.6 2.5-5s2.5-2.7 2.5-2.9c0-.3-5.6-13.7-12.4-29.8-6.8-16.2-12.7-31.1-13-33.3-.8-4.9 1.5-14 5.1-20.2 3.9-6.7 13.7-16.2 22.2-21.7 10.9-7 21.3-11.2 37.6-14.9 1.1-.3 7.9-.4 15.1-.3 12.5.2 13.3.4 19.7 3.5zm478-1.4c18.1 4.6 33.9 13.6 45.4 25.9 8.6 9.3 11.8 16.2 11.8 25.7 0 7.4-.2 8-12.8 37.4L688 356.2l2.5 2c1.8 1.4 2.5 2.9 2.5 5.3 0 4-2.5 5.8-7.1 5.3l-3.1-.3-25.2 59.7c-13.9 32.8-26.1 60.9-27 62.3-2.3 3.4-9.9 8.2-16 10-3.1.9-9.2 1.5-16.2 1.5-12.7 0-25.3-2.7-36.5-7.8l-6.7-3-1.2 4.2c-5.2 17.6-19.9 39.4-35.7 52.6-11.5 9.7-29.7 19.8-40.5 22.5l-2.8.7v-6.1c0-5 .3-6.3 1.8-6.8.9-.3 5.4-2.3 9.9-4.3 4.5-2.1 8.4-3.5 8.7-3.2.3.3.6.1.6-.5 0-.5 3.1-3 6.8-5.6 12.9-8.8 26.7-24.8 34.2-39.7 3-5.9 8.4-20.1 7.7-20.5-.1 0-1.7-1.3-3.6-2.9l-3.4-2.7-2.7 8.3c-3.9 11.8-5.5 15.2-11.6 24.6-10.6 16.2-28.1 30.4-45.6 37.1L475 550v-10.7l6.3-3.1c10.7-5.3 21.1-14.1 31.7-26.7 5.5-6.7 11.7-20.7 14.5-32.7l1.5-6.7-2.9-4.6-3-4.7-.6 3.9c-1.8 11.8-3 16.5-5.6 23.3-6.6 17.1-19.2 31.4-36.1 41l-5.8 3.2v-5.1c0-3.7.4-5.1 1.4-5.1.8 0 1.6-.4 1.8-.8.2-.5 2.5-2.3 5.1-4.1 11.8-8.1 22.4-22.2 27.3-36.6 3.9-11.3 4.5-27.7 1.6-39.3-4.2-16.3-13.3-30.5-25.9-40-3.7-2.8-7.3-5.6-8-6.2-.7-.5-1.6-1-2.1-1-.4 0-1.6-1.8-2.6-3.9-1-2.4-3.2-4.9-5.3-6.2-4.8-3-2.9-3.5 3.9-.9 21.9 8.2 40.2 28.4 47.2 52 1.4 4.7 2.5 7.4 2.6 6 0-1.4.7-3.6 1.5-5 2.3-4.1 1.8-6.9-3.7-17.9-4.6-9.5-6.2-11.6-15.7-21.1-11.4-11.4-21.7-18.1-33.2-21.7l-5.9-1.8v-5.3c0-5.2 0-5.2 2.8-4.6 5.4 1.3 17.7 6.6 24.1 10.4 14.4 8.4 27.3 21.7 35.6 36.6l3.8 6.8 1.8-3.9c2.5-5.6 2.4-6.3-2-13-8.1-12.2-19-23.3-30.3-30.7-2.7-1.7-4.8-3.6-4.8-4.1 0-.6-.3-.8-.6-.4-.4.3-3.6-.9-7.3-2.7-6.6-3.4-21.7-8.6-24.9-8.6-.9 0-2.8-1.6-4.2-3.4-1.4-1.9-4.7-5-7.5-7.1l-5-3.7 6.5.7c21.6 2.3 40.7 9.4 57.9 21.5 8.6 6.1 21.1 18.5 26.1 25.8 1.9 2.8 3.8 5.2 4.1 5.2.4 0 2.5-4.4 4.7-9.8 12.6-29.9 16.5-39.1 18.1-42.7 1-2.2 3.2-7.3 4.8-11.3l3-7.4-2.9-2.8c-4.9-5-3.4-9.1 3.8-9.9l4.7-.6 9.4-22c5.1-12.1 10.8-25.6 12.5-30 4.2-10.6 10-16.5 19-19.4 9.4-3 25.6-2.8 38.1.3zM433 321.5c4.1.9 10.2 2.4 13.5 3.5 5.7 1.8 9 2.6 14.5 3.5 1.4.2 5 1.1 8 2 5 1.5 7.6 2.2 10.5 2.9 4.1.9 10.5 3.1 10.5 3.6 0 .3 1 .6 2.2.7 1.1.1 2.4.7 2.8 1.3.4.7 1 1.1 1.4 1 1.3-.4 6.6 2.2 6.6 3.2 0 .5.4.7.9.4.5-.3 1.4.1 2.1.9.7.8 1.6 1.3 2 1 .4-.3 1.1.2 1.4 1.1.3.8 1 1.2 1.6.9.5-.3 1-.2 1 .4 0 .5.9 1.2 1.9 1.6 3 .9 16.6 11.9 21 16.9 1.4 1.7 3.8 4.3 5.3 5.9 1.5 1.6 2.6 3.3 2.3 3.6-.2.4-5-3.8-10.7-9.3-15.6-15.3-32.5-25.5-51.3-31.1-4.9-1.5-9.9-3-11.1-3.5-1.1-.4-8.8-1.3-17-2-16.1-1.3-16.2-1.3-24.4-6.5-6.2-3.9-5.6-4.1 5-2zm1.7 7.8c.3.4-1.6.7-4.3.7-2.9 0-4.4-.4-3.6-.9 1.5-.9 6.9-.8 7.9.2zm-9.7.9c0 .4-.9.8-1.9.8-1.1 0-2.2-.4-2.5-.8-.2-.4.6-.8 2-.8 1.3 0 2.4.4 2.4.8zm-.5 5.7c16 4.2 29.2 12.7 33.4 21.4 1.8 3.7 2.1 6.2 2.1 16.5 0 11.4.1 12.2 1.9 12.2 2.7 0 7.8 4.5 8.5 7.5.4 1.4.2 4.3-.4 6.5-1.9 6.9-8 6.1-8-1.2 0-1.5-.4-2.8-1-2.8s-1 3.8-1 9.5v9.5h10v9.8l-3.6-.8-3.7-.9 3.7 3c2 1.7 3.6 3.8 3.6 4.7 0 1.2-.6 1-2.7-1-6.3-5.7-8.8-6.8-13.8-6.1l-4.8.6 5.9 2.7c6.9 3.1 15.4 11.6 15.4 15.2-.1 2-.4 1.8-2-1.3-2.9-5.5-10.2-11.4-16.4-13.3-5.2-1.6-5.6-1.6-8.8 0l-3.3 1.8 5 .7c6.9 1 9.7 2.2 14.6 6.6 10.6 9.6 11.8 25 2.9 36.3-3.9 5-12.2 9.1-18.8 9.3-2.7.1-4.8.5-4.5.9.2.5 1.1.8 1.9.8.8 0 1.4.5 1.4 1.1 0 1.7 9.1.4 13.7-2 3.8-1.9 9.6-7.4 12.7-12.1 1-1.6 1.6-1.9 1.6-.9 0 4.5-11.4 14.7-18.3 16.4-1.5.4-3 1.1-3.3 1.6-.3.5-.2.9.3.7.4-.1 2.2.2 4 .6 3.8.9 7.6-.8 13.4-6.1 2.6-2.4 3.9-3 3.9-2 0 .9-1.9 3.2-4.2 5.2l-4.3 3.6 4.3-.7 4.2-.7V596H322V486.9l2.1 1.2c1.2.6 3.6 1.3 5.2 1.6 3.1.5 3 .4-2.1-4.2-2.9-2.6-5.2-5.4-5.2-6.2 0-1 1.8.1 4.8 3 6.4 5.9 10.5 8 14.9 7.4 4.2-.6 5.2-1.4 2.7-2.3-12.1-4.1-22.5-14.9-22.3-23.1 0-2.3.3-1.9 1.6 2 2 5.8 9 14 14.5 16.8 5.7 2.9 12.7 3.5 15.9 1.2l2.7-1.8-5.2-.1c-22.3-.6-33.6-27.1-18.7-43.7 4.5-5 12.1-8.7 18.1-8.7l4.5-.1-2.5-2c-1.9-1.6-3.3-2-6.3-1.5-11 1.8-21.1 11.2-23.8 22.1l-.7 3-.1-3.6c-.2-6.7 8.5-17.1 17.7-21.2 3.3-1.4 4.1-2.1 3.1-2.8-3.9-2.5-12.6 1.3-18.2 8-2.2 2.7-2.7 2.9-2.7 1.3 0-1.1 1.8-3.6 4-5.6 4-3.6 3.5-4.5-1.4-2.6-2.5.9-2.5.9-2.5-4.5l.1-5.5h9.8v-10.2c0-10.1-.8-12.2-1.9-5.2-1.4 8.5-8.1 5.7-8.1-3.3 0-4.9 2.8-8.7 7.3-9.8 2.5-.7 2.5-.8 2.9-13.3.3-9.2.8-13.5 2-15.7 5.8-10.8 23.1-20 44.8-23.9 1.4-.2 10.4-.3 20-.2 14.1.3 19.1.7 25.5 2.5zm-131.6 6.5c-2.4 2.1-13.6 8-13.2 7 .6-1.5 6.2-5 7.6-4.6.4.1.7-.3.7-1 0-.6.3-.9.6-.5.4.3 1.3-.1 2.1-.9.9-.8 1.8-1.2 2.1-.9.3.3.3.7.1.9zm-14.9 8.4c0 .4-2.6 2.7-5.9 5-3.2 2.4-9.5 8-14 12.6-4.4 4.6-8.1 7.9-8.1 7.4 0-1.4 18.1-19.3 23-22.7 5.1-3.4 5-3.4 5-2.3zm41.7 55.7c-.1 0-2.8 2-6 4.4-9.9 7.5-17.4 18.6-21.3 31.7-2.4 7.9-2.4 22.9 0 30.8 3.8 12.7 11.8 24.7 21 31.5 4.2 3.2 4.6 3.8 4.6 7.8v4.4l-5.7-4c-12-8.2-21-20.1-25.8-34.2-2.5-7.3-2.9-10-2.9-20.4-.1-13.8 2-22.4 8.1-33.3 4.2-7.6 13.5-17.8 20.6-22.5l5.1-3.5 1.3 3.6c.7 2 1.1 3.7 1 3.7zm167.7 2.6c7.3 6.7 13.2 15.1 15.7 21.9.9 2.5 2.1 5.8 2.8 7.5.7 1.6 1.7 6.7 2.4 11.3 1.1 8.8 0 21.8-2.4 27.7-.7 1.6-1.9 5-2.8 7.5-3.4 9.5-15.9 24.1-24.9 29.3l-3.2 1.8v-4.3c.1-4.1.4-4.6 6-8.8 3.3-2.5 5.9-4.8 6-5.2 0-.4 1.5-2.7 3.3-5 1.7-2.4 4.5-7.1 6-10.5 9-20 6.6-41.1-6.7-60.3-3.6-5.3-3.5-5.2-11.2-11l-6-4.6 1.3-3.2c1.3-3.2 1.4-3.2 4.3-1.7 1.6.8 5.9 4.3 9.4 7.6zm-15.9-.1c.3.5-.1 1-.9 1-.9 0-1.6-.5-1.6-1 0-.6.4-1 .9-1 .6 0 1.3.4 1.6 1zm5.6 18.4c.5.6.9 1.5.9 2 0 .6-.7.2-1.5-.8-.8-1.1-1.4-2.9-1.4-4 .1-2 .1-2.1.6-.1.3 1.1.9 2.4 1.4 2.9zM318 425c0 .5-.5 1-1.1 1-.5 0-.7-.5-.4-1 .3-.6.8-1 1.1-1 .2 0 .4.4.4 1zm-1.4 4.7c-1 1-1.9-.5-1-1.8.6-1.1.8-1.1 1.2 0 .2.7.1 1.5-.2 1.8zM480.3 456c0 4.7-.4 9.5-.9 10.7-.6 1.4-.9-2.3-1-11-.1-9.6.1-12.5.8-10.7.6 1.4 1 6.3 1.1 11zM316 483.5c.6 2.5.5 3.4-.1 2.8-.6-.6-1.3-2.6-1.6-4.4-.6-4.4.6-3.2 1.7 1.6zm162.2.5c-.4 2.9-3.2 6.5-3.2 4.1 0-1.2 2.8-7.1 3.4-7.1.1 0 .1 1.3-.2 3zm80.4 32.3c-3.6 7.4-7.8 14.7-9.3 16.1-1.5 1.4-2.3 2.6-1.8 2.6.5 0-.1.7-1.3 1.6-1.2.8-2.2 2.1-2.2 2.8 0 .7-1.2 2.4-2.7 3.8-1.6 1.4-4.2 4-5.9 5.9-4.1 4.4-8.9 8.9-9.6 8.9-.3 0-2.3 1.6-4.4 3.5-2.1 1.9-4.2 3.5-4.6 3.5-.5 0-2.1 1.1-3.6 2.5s-3.2 2.5-3.9 2.5c-.6 0-1.9.7-2.7 1.6-.9.8-2.2 1.2-2.8.8-.7-.4-1-.4-.6.1.7.8-7.8 5.4-11.1 6-.9.2-1.7.4-1.8.4-.2.1-.5.1-.8.1-.3-.1-1.8.6-3.3 1.4-2.8 1.5-8.8 3.6-10.3 3.6-.5 0-.9-.4-.9-.8s3.2-1.8 7.1-3.1c10.7-3.4 27.4-12.2 37-19.5 16.8-12.7 31-30.5 39.9-49.8 2.4-5.4 4.8-9.4 5.3-8.9s-2.1 6.9-5.7 14.4zm-325.1-4.5c8.3 18.3 22.8 36.3 39.4 48.8 9.7 7.3 28.6 17.1 38.5 20 3.6 1 6.6 2.3 6.6 2.7 0 1.5-9.4-1.4-20-6.2-3.5-1.5-4.1-1.7-5.9-2-.5 0-2.3-1.3-4-2.7-1.7-1.4-3.1-2.3-3.1-1.9 0 1-4.5-2-9.8-6.4-2.4-2-4.6-3.6-5-3.6-1 0-8.3-6.7-14.1-12.9-2.5-2.8-5.8-6.3-7.3-7.9-1.6-1.7-2.8-3.4-2.8-3.9s-1.1-2.1-2.4-3.5c-1.3-1.4-3-3.7-3.7-5.2-.7-1.4-2.2-4-3.4-5.6-1.1-1.7-1.9-3.1-1.7-3.3.1-.1-1.4-3.5-3.3-7.5-3.9-8-3.8-7.7-2.7-7.7.4 0 2.5 4 4.7 8.8z"/><path d="M362 324.5l-5.5 3.5h3.8c2 0 3.8-.1 4-.2.1-.1 1.2.4 2.5 1.1 2.1 1.1 2.2 1 2.2-3.4 0-2.5-.3-4.5-.7-4.5-.5 0-3.3 1.6-6.3 3.5zM176 306.4c-20.9 4.5-47.1 18.9-52.4 28.9l-2 3.5 5.9 14.1c3.2 7.8 6.4 14.1 6.9 14.1.6 0 17.5-7 37.6-15.5 23.9-10.1 36.4-15.9 36.2-16.7-1.1-4.1-10.6-25.6-12.1-27.1-2.4-2.5-11.7-3-20.1-1.3zM218.3 339.5c-1.2.8-3.1 3.1-4.3 5-2.5 4.1-6.1 15.3-5.1 15.7.4.2 2.4 4.3 4.4 9.3 10 25 18.4 41.2 23.6 45.9 1.9 1.7 2 1.6 6-7l4.2-8.8-2.3-5.6c-1.2-3-2.3-5.7-2.4-6 0-.3-1-2.5-2.1-5s-5.7-13.6-10.4-24.7c-4.6-11.2-8.6-20.3-8.9-20.3-.3 0-1.5.7-2.7 1.5zM126.8 377.5c-.5.6 1.6 5.6 21 50.5 4.3 10.2 9.4 22.1 11.2 26.5 1.8 4.4 3.4 8.1 3.6 8.3.1.2 1.4-.4 2.7-1.3 4-2.6 5.7-7.4 5.7-15.8 0-9.8-2.9-19.5-12.5-42.2-8.3-19.6-10.2-22.2-18.3-25-4.4-1.5-12.3-2-13.4-1zM251.6 418.2c-2.2 5.1-2 5.8 1.3 5.8 4 0 4.3-.8 2.1-5.5l-1.8-4-1.6 3.7zM246.9 439.7c-1.9.5-2.9 6.1-2.9 16v6.3l3.7-1.5c2-.9 3.9-1.7 4.1-2 .2-.2.6-4 .9-8.6.5-7.2.4-8.4-1.2-9.6-1.1-.7-2.1-1.2-2.4-1.2-.3.1-1.3.3-2.2.6zM203.6 458.1c-15.4 6.5-28.3 12.4-28.8 13.1-.5.7-.6 2.9-.2 4.8.7 4 4.3 13 5.3 13 .3 0 12.1-4.9 26.1-10.8l25.5-10.8.5-10.7c.3-5.9.3-10.7 0-10.6-.3 0-13.1 5.4-28.4 12zM598.5 306.4c-2.6 1.1-3.8 3.2-8.8 15.1-3.2 7.6-5.5 14.1-5 14.5.4.5 17 7.6 36.7 16 19.8 8.3 36.3 15.3 36.7 15.5 1 .6 11.9-26.1 11.9-29.2 0-3.6-9.2-12.5-18.8-18.2-13.4-8-35.3-15.2-45.9-15.1-2.1.1-5.1.7-6.8 1.4zM570.1 340.2c-.5 1.3-4.4 10.8-8.8 21.3-4.4 10.4-8.6 20.5-9.3 22.2-.7 1.8-1.7 3.3-2.2 3.3-.5 0-.7.4-.3.9.3.5-.6 3.5-1.9 6.5l-2.5 5.6 4.1 8.7 4.1 8.7 3.8-4.2c2-2.4 5.8-8.3 8.4-13.3 7.1-13.7 17.7-39.1 17.6-41.9-.2-4.9-3.4-12.3-6.8-16.1-4.1-4.5-5-4.7-6.2-1.7zM648.9 380.3l-6.3 3.2-7.3 17c-13.5 31.6-16.3 43-13.1 53.7 1.4 4.7 6.7 9.7 7.9 7.5.5-.8 5.5-12.4 11.3-25.8 5.7-13.4 13.6-31.8 17.5-40.8 3.9-9 7.1-16.8 7.1-17.3 0-.4-2.4-.8-5.4-.8-4.2 0-6.9.8-11.7 3.3zM537.1 419.1c-1.3 3.8-.7 4.9 2.5 4.9 2.7 0 2.8-.4 1.3-4.9-1.4-3.9-2.4-3.9-3.8 0zM540.7 440.8c-1.8 1.9-2.2 7.7-1.1 14.3.5 3.2 1.2 3.9 4.7 5.3l4 1.6-.6-10.7c-.5-10.3-1.2-12.2-4.3-12.3-.6 0-1.8.8-2.7 1.8zM560 456.5l.5 10.6 5.5 2.4c20.5 9 46.3 19.4 47 19 1.4-.9 5-11.3 5-14.4 0-1.6-.6-3.3-1.2-3.8-1.1-.9-56-24.3-56.9-24.3-.2 0-.2 4.7.1 10.5zM384.1 343.1c-21 2.6-41.5 12.6-43.7 21.3-.9 3.9.7 10.2 2.6 9.9.8-.1 4.2-1.3 7.5-2.7 9.2-3.8 20.3-5 47-5 18.1.1 26.3.5 33.3 1.7 8.8 1.6 16.3 4.4 17.7 6.7 1.3 2.1 2.2.8 3.4-4.4 1-4.6 1-5.9-.3-8.4-6.7-13-40.3-22.5-67.5-19.1zM347.5 442.5c-.5.2-4.3.9-8.2 1.5l-7.3 1.2v11.4c0 11 .1 11.4 2.3 11.9 2.6.6 18.7 3.5 19.3 3.5.2 0 .4-6.8.4-15v-15l-2.7.1c-1.6 0-3.2.2-3.8.4zM439 457c0 8.2.1 15 .3 15 .1 0 4.9-.9 10.7-2 5.8-1.1 10.6-2 10.7-2 .2 0 .3-5.1.3-11.3v-11.4l-9.3-1.6c-14.1-2.6-12.7-4-12.7 13.3z"/></svg>